<?xml version="1.0" encoding="UTF-8" standalone="no"?>
<!DOCTYPE svg PUBLIC "-//W3C//DTD SVG 1.1//EN" "http://www.w3.org/Graphics/SVG/1.1/DTD/svg11.dtd">
<svg width="840px" height="640px" xmlns="http://www.w3.org/2000/svg" version="1.1">
<rect x="0" y="0" width="800" height="600" style="fill:yellow;stroke:brown;stroke-width:2;fill-opacity:0.4;stroke-opacity:0.8"/>
<polygon points="300,500 300,300 250,400 200,450 150,550 100,600 200,600 " style="fill:white;stroke:purple;stroke-width:1" />
<polygon points="150,550 200,450 100,100 100,450 " style="fill:white;stroke:purple;stroke-width:1" />
<polygon points="500,400 400,300 250,150 175,300 300,300 300,500 300,600 500,600 " style="fill:white;stroke:purple;stroke-width:1" />
<polygon points="400,300 500,400 600,400 600,600 800,500 600,300 " style="fill:white;stroke:purple;stroke-width:1" />
<text x="100" y="100" text-anchor="middle" font-size="20px" fill="#aaaaaa">0</text>
<text x="100" y="450" text-anchor="middle" font-size="20px" fill="#aaaaaa">1</text>
<text x="150" y="550" text-anchor="middle" font-size="20px" fill="#aaaaaa">2</text>
<text x="100" y="600" text-anchor="middle" font-size="20px" fill="#aaaaaa">3</text>
<text x="200" y="600" text-anchor="middle" font-size="20px" fill="#aaaaaa">4</text>
<text x="300" y="500" text-anchor="middle" font-size="20px" fill="#aaaaaa">5</text>
<text x="300" y="600" text-anchor="middle" font-size="20px" fill="#aaaaaa">6</text>
<text x="500" y="600" text-anchor="middle" font-size="20px" fill="#aaaaaa">7</text>
<text x="500" y="400" text-anchor="middle" font-size="20px" fill="#aaaaaa">8</text>
<text x="600" y="400" text-anchor="middle" font-size="20px" fill="#aaaaaa">9</text>
<text x="600" y="600" text-anchor="middle" font-size="20px" fill="#aaaaaa">10</text>
<text x="800" y="500" text-anchor="middle" font-size="20px" fill="#aaaaaa">11</text>
<text x="600" y="300" text-anchor="middle" font-size="20px" fill="#aaaaaa">12</text>
<text x="400" y="300" text-anchor="middle" font-size="20px" fill="#aaaaaa">13</text>
<text x="250" y="150" text-anchor="middle" font-size="20px" fill="#aaaaaa">14</text>
<text x="175" y="300" text-anchor="middle" font-size="20px" fill="#aaaaaa">15</text>
<text x="300" y="300" text-anchor="middle" font-size="20px" fill="#aaaaaa">16</text>
<text x="250" y="400" text-anchor="middle" font-size="20px" fill="#aaaaaa">17</text>
<text x="200" y="450" text-anchor="middle" font-size="20px" fill="#aaaaaa">18</text>
</svg>
