<?xml version="1.0" encoding="UTF-8" standalone="no"?>
<!DOCTYPE svg PUBLIC "-//W3C//DTD SVG 1.1//EN" "http://www.w3.org/Graphics/SVG/1.1/DTD/svg11.dtd">
<svg width="840px" height="640px" xmlns="http://www.w3.org/2000/svg" version="1.1">
<rect x="0" y="0" width="800" height="600" style="fill:yellow;stroke:brown;stroke-width:2;fill-opacity:0.4;stroke-opacity:0.8"/>
<polygon points="200,600 150,550 100,600 " style="fill:white;stroke:purple;stroke-width:1" />
<polygon points="150,550 100,100 100,450 " style="fill:white;stroke:purple;stroke-width:1" />
<polygon points="300,300 250,150 175,300 " style="fill:white;stroke:purple;stroke-width:1" />
<polygon points="600,400 600,300 500,400 " style="fill:white;stroke:purple;stroke-width:1" />
<polygon points="300,500 300,300 200,600 " style="fill:white;stroke:purple;stroke-width:1" />
<polygon points="150,550 200,600 200,450 " style="fill:white;stroke:purple;stroke-width:1" />
<polygon points="200,600 250,400 200,450 " style="fill:white;stroke:purple;stroke-width:1" />
<polygon points="200,600 300,300 250,400 " style="fill:white;stroke:purple;stroke-width:1" />
<polygon points="300,300 300,500 " style="fill:white;stroke:purple;stroke-width:1" />
<polygon points="200,450 100,100 150,550 " style="fill:white;stroke:purple;stroke-width:1" />
<polygon points="100,100 200,450 " style="fill:white;stroke:purple;stroke-width:1" />
<polygon points="500,600 500,400 300,600 " style="fill:white;stroke:purple;stroke-width:1" />
<polygon points="400,300 300,500 300,600 " style="fill:white;stroke:purple;stroke-width:1" />
<polygon points="400,300 300,300 300,500 " style="fill:white;stroke:purple;stroke-width:1" />
<polygon points="300,300 400,300 250,150 " style="fill:white;stroke:purple;stroke-width:1" />
<polygon points="300,600 500,400 400,300 " style="fill:white;stroke:purple;stroke-width:1" />
<polygon points="500,400 500,600 " style="fill:white;stroke:purple;stroke-width:1" />
<polygon points="500,400 600,300 400,300 " style="fill:white;stroke:purple;stroke-width:1" />
<polygon points="800,500 600,400 600,600 " style="fill:white;stroke:purple;stroke-width:1" />
<polygon points="800,500 600,400 " style="fill:white;stroke:purple;stroke-width:1" />
<polygon points="600,400 800,500 600,300 " style="fill:white;stroke:purple;stroke-width:1" />
<circle cx="100" cy="100" r="5" stroke="red" stroke-width="1"/>
<text x="100" y="100" text-anchor="middle" font-size="20px" fill="#aaaaaa">0</text>
<circle cx="100" cy="450" r="5" stroke="blue" stroke-width="1"/>
<text x="100" y="450" text-anchor="middle" font-size="20px" fill="#aaaaaa">1</text>
<circle cx="150" cy="550" r="5" stroke="green" stroke-width="1"/>
<text x="150" y="550" text-anchor="middle" font-size="20px" fill="#aaaaaa">2</text>
<circle cx="100" cy="600" r="5" stroke="blue" stroke-width="1"/>
<text x="100" y="600" text-anchor="middle" font-size="20px" fill="#aaaaaa">3</text>
<circle cx="200" cy="600" r="5" stroke="red" stroke-width="1"/>
<text x="200" y="600" text-anchor="middle" font-size="20px" fill="#aaaaaa">4</text>
<circle cx="300" cy="500" r="5" stroke="green" stroke-width="1"/>
<text x="300" y="500" text-anchor="middle" font-size="20px" fill="#aaaaaa">5</text>
<circle cx="300" cy="600" r="5" stroke="blue" stroke-width="1"/>
<text x="300" y="600" text-anchor="middle" font-size="20px" fill="#aaaaaa">6</text>
<circle cx="500" cy="600" r="5" stroke="red" stroke-width="1"/>
<text x="500" y="600" text-anchor="middle" font-size="20px" fill="#aaaaaa">7</text>
<circle cx="500" cy="400" r="5" stroke="green" stroke-width="1"/>
<text x="500" y="400" text-anchor="middle" font-size="20px" fill="#aaaaaa">8</text>
<circle cx="600" cy="400" r="5" stroke="red" stroke-width="1"/>
<text x="600" y="400" text-anchor="middle" font-size="20px" fill="#aaaaaa">9</text>
<circle cx="600" cy="600" r="5" stroke="blue" stroke-width="1"/>
<text x="600" y="600" text-anchor="middle" font-size="20px" fill="#aaaaaa">10</text>
<circle cx="800" cy="500" r="5" stroke="green" stroke-width="1"/>
<text x="800" y="500" text-anchor="middle" font-size="20px" fill="#aaaaaa">11</text>
<circle cx="600" cy="300" r="5" stroke="blue" stroke-width="1"/>
<text x="600" y="300" text-anchor="middle" font-size="20px" fill="#aaaaaa">12</text>
<circle cx="400" cy="300" r="5" stroke="red" stroke-width="1"/>
<text x="400" y="300" text-anchor="middle" font-size="20px" fill="#aaaaaa">13</text>
<circle cx="250" cy="150" r="5" stroke="green" stroke-width="1"/>
<text x="250" y="150" text-anchor="middle" font-size="20px" fill="#aaaaaa">14</text>
<circle cx="175" cy="300" r="5" stroke="red" stroke-width="1"/>
<text x="175" y="300" text-anchor="middle" font-size="20px" fill="#aaaaaa">15</text>
<circle cx="300" cy="300" r="5" stroke="blue" stroke-width="1"/>
<text x="300" y="300" text-anchor="middle" font-size="20px" fill="#aaaaaa">16</text>
<circle cx="250" cy="400" r="5" stroke="green" stroke-width="1"/>
<text x="250" y="400" text-anchor="middle" font-size="20px" fill="#aaaaaa">17</text>
<circle cx="200" cy="450" r="5" stroke="blue" stroke-width="1"/>
<text x="200" y="450" text-anchor="middle" font-size="20px" fill="#aaaaaa">18</text>
</svg>
